<svg viewBox="0 0 800 160" xmlns="http://www.w3.org/2000/svg" xmlns:xlink="http://www.w3.org/1999/xlink" id="Layer_1" xml:space="preserve" overflow="hidden"><style>
.MsftOfcThm_Accent4_Fill_v2 {
 fill:#89A2B0; 
}
</style>
<g><path d="M34 115 4 115 4 85 124 0 34 115Z" class="st0 MsftOfcThm_Accent4_Fill_v2" stroke="none" stroke-width="1" stroke-linecap="butt" stroke-linejoin="miter" stroke-miterlimit="4" fill="#89A2B0" fill-opacity="1"/><path d="M94 45 124 45 124 75 4 160 94 45Z" class="st0 MsftOfcThm_Accent4_Fill_v2" stroke="none" stroke-width="1" stroke-linecap="butt" stroke-linejoin="miter" stroke-miterlimit="4" fill="#89A2B0" fill-opacity="1"/><path d="M205.5 116 198.7 116C160.4 116 156 100.3 156 91.1L156 90.1 179.9 90.1C180.2 94.3 182.7 101.1 201.6 101.1L203 101.1C222.3 101.1 224.4 97.5 224.4 93.7 224.4 89.7 222.1 87.2 205.2 86.7L192.6 86.4C165.3 85.7 156.9 76.9 156.9 66L156.9 65.2C156.9 54.8 163.4 44 196.7 44L203.5 44C238.1 44 245.9 55.5 245.9 66L245.9 66.9 222.1 66.9C221.6 64.3 220.1 58.6 201 58.6L199.4 58.6C181.7 58.6 180.4 61.6 180.4 64.6 180.4 67.6 182.4 70.3 197.3 70.6L209.6 70.8C237.1 71.3 248.2 77.6 248.2 91.5L248.2 92.8C248.3 104.2 242.3 116 205.5 116Z" class="st0 MsftOfcThm_Accent4_Fill_v2" stroke="none" stroke-width="1" stroke-linecap="butt" stroke-linejoin="miter" stroke-miterlimit="4" fill="#89A2B0" fill-opacity="1"/><path d="M310.4 86.4 296.3 60.3 282.7 86.4 310.4 86.4ZM325.8 114.8 318.9 102.1 274.6 102.1 268 114.8 244.7 114.8 281.6 45.2 311.3 45.2 350.4 114.8 325.8 114.8Z" class="st0 MsftOfcThm_Accent4_Fill_v2" stroke="none" stroke-width="1" stroke-linecap="butt" stroke-linejoin="miter" stroke-miterlimit="4" fill="#89A2B0" fill-opacity="1"/><path d="M375.4 61 375.4 74.7 410 74.7C416.6 74.7 419.2 71.7 419.2 67.9L419.2 67.8C419.2 64.2 416.6 61.1 410 61.1L375.4 61.1ZM375.4 90.1 375.4 114.8 352.5 114.8 352.5 45.2 411.4 45.2C435.8 45.2 443.1 53.2 443.1 63.2L443.1 64.3C443.1 74.3 434.4 78 429.5 79.5 437 81.6 443.4 86.5 443.4 95.5L443.4 105.7C443.4 111.3 444.1 113.1 444.8 114.2L444.8 114.7 421.5 114.7C420.8 113.9 420.4 112.8 420.4 110.3L420.4 102.3C420.4 93.8 416.5 90.1 405.2 90.1L375.4 90.1Z" class="st0 MsftOfcThm_Accent4_Fill_v2" stroke="none" stroke-width="1" stroke-linecap="butt" stroke-linejoin="miter" stroke-miterlimit="4" fill="#89A2B0" fill-opacity="1"/><path d="M499 44 503.2 44C549.2 44 554.6 66 554.6 78.4L554.6 81.2C554.6 93.4 549.3 116 503.2 116L499 116C452.7 116 447.5 93.5 447.5 81.2L447.5 78.4C447.5 66 452.7 44 499 44ZM530.6 80.4 530.6 79.1C530.6 71.2 525.8 60.9 501 60.9 475.9 60.9 471.4 71.2 471.4 79.1L471.4 80.2C471.4 88.1 476.2 99.1 501 99.1 525.6 99.1 530.6 88.4 530.6 80.4Z" class="st0 MsftOfcThm_Accent4_Fill_v2" stroke="none" stroke-width="1" stroke-linecap="butt" stroke-linejoin="miter" stroke-miterlimit="4" fill="#89A2B0" fill-opacity="1"/><path d="M560.8 45.2 586.3 45.2 633 89 633 45.2 655.6 45.2 655.6 114.8 633 114.8 583.4 68.7 583.4 114.8 560.8 114.8 560.8 45.2Z" class="st0 MsftOfcThm_Accent4_Fill_v2" stroke="none" stroke-width="1" stroke-linecap="butt" stroke-linejoin="miter" stroke-miterlimit="4" fill="#89A2B0" fill-opacity="1"/><path d="M687.8 45.2 687.8 114.8 664.9 114.8 664.9 45.2 687.8 45.2Z" class="st0 MsftOfcThm_Accent4_Fill_v2" stroke="none" stroke-width="1" stroke-linecap="butt" stroke-linejoin="miter" stroke-miterlimit="4" fill="#89A2B0" fill-opacity="1"/><path d="M747 116 743 116C700.7 116 694.1 93.5 694.1 81.1L694.1 78.4C694 65.8 699.7 44 743 44L747 44C789.3 44 795.9 63.3 795.9 71.4L795.9 72.4 771.6 72.4C771 70.5 768.1 60.8 744.9 60.8 723 60.8 718 70.2 718 78.8L718 80C718 88.2 723.8 99.1 745.1 99.1 768.8 99.1 771.1 88.3 771.7 86.8L796 86.8 796 87.8C796 96.6 788.7 116 747 116Z" class="st0 MsftOfcThm_Accent4_Fill_v2" stroke="none" stroke-width="1" stroke-linecap="butt" stroke-linejoin="miter" stroke-miterlimit="4" fill="#89A2B0" fill-opacity="1"/></g></svg>