<svg width="485" height="192" viewBox="0 0 485 192" xmlns="http://www.w3.org/2000/svg" xmlns:xlink="http://www.w3.org/1999/xlink" fill="none" overflow="hidden"><style>
.MsftOfcThm_Accent4_Fill_v2 {
 fill:#89A2B0; 
}
</style>
<path d="M26.784 48 17.696 28.416C16.608 28.48 15.456 28.48 14.304 28.48L9.056 28.48 9.056 48 2.976 48 2.976 1.6 14.304 1.6C24.416 1.6 32.224 3.776 32.224 14.848 32.224 22.08 28.896 25.664 23.84 27.264L33.696 48 26.784 48ZM15.008 7.36 9.056 7.36 9.056 22.72 15.008 22.72C21.152 22.72 25.952 22.144 25.952 14.976 25.952 7.808 21.152 7.36 15.008 7.36ZM44.543 48 44.543 1.6 72.191 1.6 72.191 7.36 50.623 7.36 50.623 21.184 70.911 21.184 70.911 26.944 50.623 26.944 50.623 42.24 72.191 42.24 72.191 48 44.543 48ZM110.302 24.768C110.302 8.96 101.15 7.36 92.51 7.36L90.846 7.36 90.846 42.24 92.51 42.24C101.15 42.24 110.302 40.512 110.302 24.768ZM84.766 1.6 92.702 1.6C105.886 1.6 116.51 7.04 116.51 24.768 116.51 42.432 105.886 48 92.702 48L84.766 48 84.766 1.6ZM127.293 48 127.293 1.6 154.941 1.6 154.941 7.36 133.373 7.36 133.373 21.184 153.661 21.184 153.661 26.944 133.373 26.944 133.373 42.24 154.941 42.24 154.941 48 127.293 48ZM169.82 48 169.82 1.6 198.364 1.6 198.364 7.36 175.9 7.36 175.9 21.184 197.148 21.184 197.148 26.944 175.9 26.944 175.9 48 169.82 48ZM208.763 7.36 208.763 1.6 238.267 1.6 238.267 7.36 226.555 7.36 226.555 42.24 238.267 42.24 238.267 48 208.763 48 208.763 42.24 220.475 42.24 220.475 7.36 208.763 7.36ZM279.898 48 270.81 48 255.962 8.384 255.962 48 249.882 48 249.882 1.6 258.97 1.6 273.818 41.088 273.818 1.6 279.898 1.6 279.898 48ZM291.513 7.36 291.513 1.6 321.017 1.6 321.017 7.36 309.305 7.36 309.305 42.24 321.017 42.24 321.017 48 291.513 48 291.513 42.24 303.225 42.24 303.225 7.36 291.513 7.36ZM362.648 48 353.56 48 338.712 8.384 338.712 48 332.632 48 332.632 1.6 341.72 1.6 356.568 41.088 356.568 1.6 362.648 1.6 362.648 48ZM389.175 6.4C381.815 6.4 377.975 12.864 377.975 24.704 377.975 36.16 381.431 43.2 389.175 43.2 394.743 43.2 399.991 40.768 399.991 31.168L399.991 29.696 389.303 29.696 389.303 23.936 405.559 23.936 405.559 48 400.951 48 400.695 42.176C397.943 46.912 394.487 48.832 388.919 48.832 376.951 48.832 371.703 38.784 371.703 24.704 371.703 10.304 377.719 0.767998 389.495 0.767998 398.135 0.767998 403.959 6.528 405.431 15.936L399.159 15.936C398.391 10.56 395.831 6.4 389.175 6.4ZM19.744 101 13.6 101 6.816 76.552 6.816 117 0.736 117 0.736 70.6 10.272 70.6 16.672 94.344 23.072 70.6 32.608 70.6 32.608 117 26.528 117 26.528 76.552 19.744 101ZM61.311 70.6 76.543 117 70.015 117 66.879 107.08 49.151 107.08 46.079 117 39.551 117 54.783 70.6 61.311 70.6ZM58.047 78.728 50.943 101.384 65.087 101.384 58.047 78.728ZM109.534 117 100.446 97.416C99.358 97.48 98.206 97.48 97.054 97.48L91.806 97.48 91.806 117 85.726 117 85.726 70.6 97.054 70.6C107.166 70.6 114.974 72.776 114.974 83.848 114.974 91.08 111.646 94.664 106.59 96.264L116.446 117 109.534 117ZM97.758 76.36 91.806 76.36 91.806 91.72 97.758 91.72C103.902 91.72 108.702 91.144 108.702 83.976 108.702 76.808 103.902 76.36 97.758 76.36ZM126.013 76.36 126.013 70.6 155.517 70.6 155.517 76.36 143.805 76.36 143.805 111.24 155.517 111.24 155.517 117 126.013 117 126.013 111.24 137.725 111.24 137.725 76.36 126.013 76.36ZM179.1 117 179.1 76.36 165.148 76.36 165.148 70.6 199.132 70.6 199.132 76.36 185.18 76.36 185.18 117 179.1 117ZM208.763 76.36 208.763 70.6 238.267 70.6 238.267 76.36 226.555 76.36 226.555 111.24 238.267 111.24 238.267 117 208.763 117 208.763 111.24 220.475 111.24 220.475 76.36 208.763 76.36ZM267.994 101 261.85 101 255.066 76.552 255.066 117 248.986 117 248.986 70.6 258.522 70.6 264.922 94.344 271.322 70.6 280.858 70.6 280.858 117 274.778 117 274.778 76.552 267.994 101ZM292.793 117 292.793 70.6 320.441 70.6 320.441 76.36 298.873 76.36 298.873 90.184 319.161 90.184 319.161 95.944 298.873 95.944 298.873 111.24 320.441 111.24 320.441 117 292.793 117ZM12.96 164.112C6.88 162.768 1.248 158.864 1.248 151.504 1.248 143.504 8.16 138.768 16.48 138.768 23.648 138.768 30.88 142.608 31.904 151.824L25.888 151.824C25.184 146.256 20.384 144.4 16.16 144.4 11.936 144.4 7.52 146.512 7.52 151.312 7.52 155.408 10.528 157.392 14.24 158.224L18.848 159.248C26.336 160.912 32.864 164.176 32.864 173.008 32.864 181.648 26.144 186.832 17.184 186.832 7.776 186.832 0.928 180.752 0.416 171.536L6.432 171.536C7.072 177.744 11.424 181.2 17.376 181.2 21.984 181.2 26.72 178.768 26.72 173.456 26.72 168.656 23.072 166.48 18.016 165.328L12.96 164.112ZM42.431 139.6 48.511 139.6 48.511 167.824C48.511 176.912 50.111 181.2 57.983 181.2 65.983 181.2 67.583 176.272 67.583 167.12L67.583 139.6 73.663 139.6 73.663 166.608C73.663 180.176 70.079 186.832 57.983 186.832 46.399 186.832 42.431 181.584 42.431 167.12L42.431 139.6ZM86.494 139.6 97.886 139.6C108.062 139.6 115.87 142.352 115.87 153.872 115.87 165.392 108.062 168.144 97.886 168.144L92.574 168.144 92.574 186 86.494 186 86.494 139.6ZM98.654 145.36 92.574 145.36 92.574 162.384 98.654 162.384C104.862 162.384 109.598 161.424 109.598 153.872 109.598 146.32 104.862 145.36 98.654 145.36ZM127.293 186 127.293 139.6 154.941 139.6 154.941 145.36 133.373 145.36 133.373 159.184 153.661 159.184 153.661 164.944 133.373 164.944 133.373 180.24 154.941 180.24 154.941 186 127.293 186ZM192.284 186 183.196 166.416C182.108 166.48 180.956 166.48 179.804 166.48L174.556 166.48 174.556 186 168.476 186 168.476 139.6 179.804 139.6C189.916 139.6 197.724 141.776 197.724 152.848 197.724 160.08 194.396 163.664 189.34 165.264L199.196 186 192.284 186ZM180.508 145.36 174.556 145.36 174.556 160.72 180.508 160.72C186.652 160.72 191.452 160.144 191.452 152.976 191.452 145.808 186.652 145.36 180.508 145.36ZM208.763 145.36 208.763 139.6 238.267 139.6 238.267 145.36 226.555 145.36 226.555 180.24 238.267 180.24 238.267 186 208.763 186 208.763 180.24 220.475 180.24 220.475 145.36 208.763 145.36ZM264.922 138.768C276.506 138.768 282.266 148.752 282.266 162.768 282.266 176.72 276.506 186.832 264.922 186.832 253.338 186.832 247.578 176.72 247.578 162.768 247.578 148.752 253.338 138.768 264.922 138.768ZM264.922 144.4C257.306 144.4 253.85 151.056 253.85 162.768 253.85 174.48 257.306 181.2 264.922 181.2 272.602 181.2 275.994 174.48 275.994 162.768 275.994 151.056 272.602 144.4 264.922 144.4ZM316.409 186 307.321 166.416C306.233 166.48 305.081 166.48 303.929 166.48L298.681 166.48 298.681 186 292.601 186 292.601 139.6 303.929 139.6C314.041 139.6 321.849 141.776 321.849 152.848 321.849 160.08 318.521 163.664 313.465 165.264L323.321 186 316.409 186ZM304.633 145.36 298.681 145.36 298.681 160.72 304.633 160.72C310.777 160.72 315.577 160.144 315.577 152.976 315.577 145.808 310.777 145.36 304.633 145.36ZM332.888 145.36 332.888 139.6 362.392 139.6 362.392 145.36 350.68 145.36 350.68 180.24 362.392 180.24 362.392 186 332.888 186 332.888 180.24 344.6 180.24 344.6 145.36 332.888 145.36ZM385.975 186 385.975 145.36 372.023 145.36 372.023 139.6 406.007 139.6 406.007 145.36 392.055 145.36 392.055 186 385.975 186ZM430.422 162.32 442.326 139.6 449.43 139.6 433.43 168.592 433.43 186 427.35 186 427.35 168.592 411.35 139.6 418.454 139.6 430.422 162.32ZM484.341 191.504 459.189 191.504 459.189 186 484.341 186 484.341 191.504Z" class="MsftOfcThm_Accent4_Fill_v2" stroke="none" stroke-width="1" stroke-linecap="butt" stroke-linejoin="miter" stroke-miterlimit="4" fill="#89A2B0" fill-opacity="1"/></svg>